<?xml version="1.0" encoding="utf-8"?>
<!-- Generator: Adobe Illustrator 15.0.0, SVG Export Plug-In . SVG Version: 6.00 Build 0)  -->
<!DOCTYPE svg PUBLIC "-//W3C//DTD SVG 1.1//EN" "http://www.w3.org/Graphics/SVG/1.1/DTD/svg11.dtd">
<svg version="1.1" id="Layer_1" xmlns="http://www.w3.org/2000/svg" xmlns:xlink="http://www.w3.org/1999/xlink" x="0px" y="0px"
	 width="110.393px" height="33.762px" viewBox="0 0 110.393 33.762" enable-background="new 0 0 110.393 33.762"
	 xml:space="preserve">
<g enable-background="new    ">
	<path fill="#E63838" d="M104.838,5.751c0-0.822,0.271-1.516,0.811-2.079s1.196-0.846,1.97-0.846c0.77,0,1.425,0.282,1.965,0.846
		c0.541,0.563,0.811,1.257,0.811,2.079c0,0.825-0.271,1.521-0.812,2.087c-0.541,0.566-1.195,0.85-1.963,0.85
		c-0.773,0-1.43-0.283-1.97-0.85S104.838,6.576,104.838,5.751z M105.312,5.749c0,0.694,0.224,1.277,0.672,1.751
		c0.447,0.474,0.992,0.71,1.635,0.71c0.637,0,1.18-0.237,1.629-0.712c0.448-0.475,0.673-1.058,0.673-1.749
		c0-0.688-0.224-1.269-0.671-1.739c-0.448-0.471-0.992-0.706-1.631-0.706c-0.643,0-1.188,0.235-1.635,0.706
		C105.535,4.481,105.312,5.061,105.312,5.749z M107.05,6.045v1.323h-0.583V4.04h1.097c0.396,0,0.707,0.086,0.934,0.257
		c0.226,0.171,0.338,0.421,0.338,0.749c0,0.162-0.043,0.305-0.129,0.427c-0.086,0.123-0.211,0.225-0.375,0.306
		c0.172,0.068,0.297,0.171,0.373,0.31c0.077,0.139,0.115,0.306,0.115,0.501v0.22c0,0.106,0.005,0.203,0.014,0.287
		c0.01,0.085,0.027,0.155,0.053,0.21v0.062h-0.599c-0.023-0.055-0.038-0.135-0.043-0.241c-0.005-0.105-0.008-0.213-0.008-0.322
		V6.593c0-0.188-0.044-0.326-0.131-0.415c-0.088-0.089-0.231-0.133-0.433-0.133H107.05z M107.05,5.536h0.596
		c0.17-0.003,0.313-0.046,0.432-0.128c0.119-0.082,0.179-0.196,0.179-0.343c0-0.19-0.052-0.324-0.154-0.401
		c-0.104-0.076-0.282-0.115-0.538-0.115h-0.514V5.536z"/>
</g>
<g>
	<g>
		<g>
			<g>
				<g>
					<g>
						<g>
							<defs>
								<rect id="SVGID_1_" x="0" y="-0.881" width="124.343" height="34.643"/>
							</defs>
							<clipPath id="SVGID_2_">
								<use xlink:href="#SVGID_1_"  overflow="visible"/>
							</clipPath>
							<path clip-path="url(#SVGID_2_)" fill="#FFFFFF" d="M101.351,26.699c0,3.297-2.856,5.969-6.382,5.969H7.473
								c-3.522,0-6.381-2.672-6.381-5.969V7.053c0-3.298,2.854-5.971,6.381-5.971h87.496c3.521,0,6.382,2.673,6.382,5.971V26.699z"
								/>
						</g>
					</g>
				</g>
			</g>
		</g>
	</g>
	<g>
		<g>
			<g>
				<g>
					<g>
						<g>
							<defs>
								<rect id="SVGID_3_" x="0" y="-0.881" width="124.343" height="34.643"/>
							</defs>
							<clipPath id="SVGID_4_">
								<use xlink:href="#SVGID_3_"  overflow="visible"/>
							</clipPath>
							<path clip-path="url(#SVGID_4_)" fill="none" stroke="#E63838" stroke-width="2.187" stroke-miterlimit="10" d="
								M101.351,26.699c0,3.297-2.856,5.969-6.382,5.969H7.473c-3.522,0-6.381-2.672-6.381-5.969V7.053
								c0-3.298,2.854-5.971,6.381-5.971h87.496c3.521,0,6.382,2.673,6.382,5.971V26.699z"/>
						</g>
					</g>
				</g>
			</g>
		</g>
	</g>
</g>
<g enable-background="new    ">
	<path fill="#E63838" d="M22.001,24.643h-0.52c-0.498,0-0.904-0.407-0.904-0.904V13.638c0,0-0.113,0.564-0.475,1.22l-1.446,2.667
		h-0.61c-0.362,0-0.61-0.271-0.723-0.475l-1.198-2.192c-0.362-0.655-0.475-1.22-0.475-1.22v10.101c0,0.497-0.407,0.904-0.904,0.904
		h-0.52c-0.497,0-0.904-0.407-0.904-0.904V10.293c0-0.521,0.271-0.927,0.813-0.927h0.678c0.361,0,0.633,0.203,0.813,0.542
		l2.486,4.52l2.486-4.52c0.181-0.339,0.452-0.542,0.813-0.542h1.491v14.372C22.905,24.236,22.498,24.643,22.001,24.643z"/>
	<path fill="#E63838" d="M33.639,10.858l-3.186,6.124v6.757c0,0.497-0.407,0.904-0.904,0.904h-0.52
		c-0.497,0-0.904-0.407-0.904-0.904v-6.757l-3.187-6.124c-0.068-0.112-0.113-0.248-0.113-0.361c0-0.339,0.158-0.7,0.475-0.858
		l0.475-0.249c0.407-0.226,0.994-0.067,1.22,0.384L29.3,14.18l2.283-4.407c0.226-0.451,0.813-0.609,1.22-0.384l0.475,0.249
		c0.316,0.158,0.475,0.497,0.475,0.813C33.752,10.587,33.707,10.722,33.639,10.858z"/>
	<path fill="#E63838" d="M47.221,24.643h-6.622V10.271c0-0.498,0.407-0.904,0.904-0.904h1.424v13.197h4.294
		c0.497,0,0.904,0.316,0.904,0.813v0.452C48.125,24.326,47.718,24.643,47.221,24.643z"/>
	<path fill="#E63838" d="M57.503,24.575l-0.497,0.112c-0.475,0.113-0.927-0.158-1.04-0.633l-0.903-3.684h-3.458l-0.904,3.684
		c-0.113,0.475-0.565,0.746-1.04,0.633l-0.497-0.112c-0.339-0.068-0.655-0.452-0.655-0.837c0-0.067,0-0.158,0.022-0.226
		l3.232-13.491c0.113-0.475,0.497-0.655,0.972-0.655h2.011l3.39,14.146c0.022,0.067,0.022,0.136,0.022,0.203
		C58.158,24.123,57.865,24.485,57.503,24.575z M53.933,15.513c-0.339-1.401-0.565-4.158-0.565-4.158H53.3
		c0,0-0.226,2.757-0.565,4.158l-0.656,2.779h2.509L53.933,15.513z"/>
	<path fill="#E63838" d="M65.684,24.643h-5.266V10.247c0-0.497,0.316-0.881,0.836-0.881H62l0.565,0.836
		c0.112,0.158,0.248,0.203,0.361,0.203c0.52,0,1.039-1.106,2.395-1.106h0.249c1.627,0,2.554,1.288,2.554,2.757v3.096
		c0,0.881-0.723,1.649-1.4,1.785v0.067c0.948,0.091,1.875,0.701,1.875,1.944v3.073C68.599,23.332,67.491,24.643,65.684,24.643z
		 M65.796,12.35c0-0.498-0.406-0.904-0.903-0.904H63.65c-0.497,0-0.904,0.406-0.904,0.904v3.615h2.147
		c0.497,0,0.903-0.407,0.903-0.904V12.35z M66.271,18.948c0-0.498-0.406-0.904-0.903-0.904h-2.622v4.52h2.622
		c0.497,0,0.903-0.406,0.903-0.904V18.948z"/>
	<path fill="#E63838" d="M75.763,24.643h-3.549c-0.52,0-0.926-0.316-0.926-0.813v-1.266h3.977c0.543,0,1.018-0.452,1.018-1.017
		v-2.486c0-0.564-0.475-1.017-1.018-1.017h-1.559c-0.497,0-0.904-0.316-0.904-0.813v-0.452c0-0.497,0.407-0.813,0.904-0.813h1.355
		c0.543,0,1.018-0.452,1.018-1.017v-2.486c0-0.564-0.475-1.017-1.018-1.017h-3.48V10.18c0-0.497,0.385-0.813,0.882-0.813h3.097
		c1.559,0,2.847,1.266,2.847,2.825v3.005c0,0.565-0.475,1.537-1.424,1.673v0.067c1.107,0.136,1.628,1.017,1.628,1.672v3.209
		C78.611,23.377,77.345,24.643,75.763,24.643z"/>
	<path fill="#E63838" d="M86.52,24.643h-3.548c-0.52,0-0.926-0.316-0.926-0.813v-1.266h3.977c0.542,0,1.017-0.452,1.017-1.017
		v-2.486c0-0.564-0.475-1.017-1.017-1.017h-1.56c-0.497,0-0.903-0.316-0.903-0.813v-0.452c0-0.497,0.406-0.813,0.903-0.813h1.356
		c0.542,0,1.017-0.452,1.017-1.017v-2.486c0-0.564-0.475-1.017-1.017-1.017h-3.48V10.18c0-0.497,0.385-0.813,0.882-0.813h3.096
		c1.56,0,2.848,1.266,2.848,2.825v3.005c0,0.565-0.475,1.537-1.424,1.673v0.067c1.107,0.136,1.627,1.017,1.627,1.672v3.209
		C89.367,23.377,88.102,24.643,86.52,24.643z"/>
</g>
</svg>
